PathFileType	4	(X/Y/Z)	/Users/mathieubourgeois/Desktop/Analyse/Traitement/Sujet_07/Data/Transformed_Sujet_07_velo_60.trc
DataRate	CameraRate	NumFrames	NumMarkers	Units	OrigDataRate	OrigDataStartFrame	OrigNumFrames
120.000000	120.000000	5	36	mm	120.000000	0	1868
Frame#	Time	RFHD			LFHD			RBHD			LBHD			C7			CLAV			RSHO			LSHO			STRN			T10			RBWT			LBWT			RFWT			LFWT			RKNI			LKNI			RKNE			LKNE			LANI			RANI			LANE			RANE			LTOE			RTOE			LHEE			RHEE			RHUM			LHUM			RRAD			LRAD			RWRA			RWRB			LWRA			LWRB			LCAR			RCAR			
		X1	Y1	Z1	X2	Y2	Z2	X3	Y3	Z3	X4	Y4	Z4	X5	Y5	Z5	X6	Y6	Z6	X7	Y7	Z7	X8	Y8	Z8	X9	Y9	Z9	X10	Y10	Z10	X11	Y11	Z11	X12	Y12	Z12	X13	Y13	Z13	X14	Y14	Z14	X15	Y15	Z15	X16	Y16	Z16	X17	Y17	Z17	X18	Y18	Z18	X19	Y19	Z19	X20	Y20	Z20	X21	Y21	Z21	X22	Y22	Z22	X23	Y23	Z23	X24	Y24	Z24	X25	Y25	Z25	X26	Y26	Z26	X27	Y27	Z27	X28	Y28	Z28	X29	Y29	Z29	X30	Y30	Z30	X31	Y31	Z31	X32	Y32	Z32	X33	Y33	Z33	X34	Y34	Z34	X35	Y35	Z35	X36	Y36	Z36	

1	0	244.2740020751953	1357.564453125	180.7140960693359	257.9246520996094	1339.503173828125	49.91272735595697	199.424087524414	1502.878784179688	173.3942260742187	211.4623870849609	1498.849853515625	29.54031944274896	45.4560317993164	1498.245727539062	77.6321258544921	22.45313644409179	1365.298828125	86.81999969482413	58.22991561889646	1427.351684570312	232.8218536376952	71.88303375244142	1449.385375976562	-61.73756027221688	-142.2134552001953	1293.9296875	72.1954345703124	-203.1779022216797	1518.335083007812	63.26620483398425	-451.4073181152344	1300.760498046875	119.4078216552733	-451.0204162597656	1295.289306640625	6.332667350768909	-292.2727966308594	1218.089599609375	168.1566009521483	-295.1068115234375	1213.46435546875	-45.41024398803722	4.49717473983763	917.9948120117188	132.3555908203124	-219.3952789306641	687.677734375	-42.94577407836921	-18.094108581543	974.5728759765625	236.5755767822265	-200.9205932617187	737.1615600585938	-150.8291625976563	-316.3637390136719	317.080322265625	-54.7865943908692	-171.1928253173828	577.8098754882812	125.0468826293945	-336.4366455078125	307.507568359375	-142.5670776367188	-200.8282165527344	575.1185913085938	211.7430419921874	-162.9507598876953	184.5535583496094	-108.3213424682617	-13.2602758407593	467.670654296875	199.2576446533203	-395.5944519042969	313.1813659667969	-104.3919754028321	-260.6516418457031	565.445556640625	166.5755004882812	67.32053375244138	1090.803100585938	259.9110107421874	87.16587829589845	1112.7060546875	-129.9036407470704	112.7561264038086	1116.224853515625	304.9790649414062	147.6717987060547	1132.425659179688	-151.8968811035157	317.6378173828124	936.5025024414062	255.7852172851562	281.3794555664062	898.0028076171875	309.9664306640625	317.8382263183594	931.1235961914062	-102.095832824707	277.612060546875	888.8062133789062	-153.1492156982422	372.6398010253906	915.1770629882812	-191.7953796386719	371.8298339843749	925.0985717773438	342.356689453125	
2	0.008333333333333333	243.9009857177734	1357.45703125	180.5205383300781	257.4938354492188	1339.391845703125	49.73642349243158	199.0845947265625	1502.759765625	173.2458190917968	211.0415191650391	1498.733154296875	29.38323974609368	45.05595016479491	1498.154052734375	77.51342010498038	22.07368278503417	1365.193359375	86.66299438476554	58.05229949951169	1427.3154296875	232.6441802978515	71.52727508544923	1449.283569335938	-61.81114578247078	-142.4667663574219	1293.86376953125	72.14694976806631	-203.6112213134766	1518.34033203125	63.56935882568347	-451.7575988769531	1300.512573242188	119.8083190917967	-451.5791931152344	1295.31884765625	6.752592086791858	-292.6121826171875	1217.757080078125	168.2288513183593	-295.6189880371094	1213.73291015625	-45.31012725830089	4.072989940643295	915.260986328125	132.2290954589843	-216.3840179443359	690.403564453125	-43.69972229003913	-19.0290393829346	972.2615966796875	236.6951751708984	-197.6659698486328	739.5556640625	-151.6226501464845	-322.0619506835938	322.4730834960938	-54.64578628540045	-167.044174194336	572.544921875	124.6997833251953	-342.4176330566406	313.1820373535156	-142.4613800048829	-195.1082611083985	568.6717529296875	211.8369445800781	-170.6068115234375	188.0188751220703	-108.700424194336	-5.807383537292505	465.0754699707031	199.8900299072265	-401.5497131347656	319.8163452148438	-104.1915588378907	-254.3265838623047	557.7430419921875	167.104995727539	67.24176025390622	1090.76416015625	259.9476623535156	86.97962188720705	1112.651611328125	-129.9497222900391	112.6920852661132	1116.23828125	304.9617614746093	147.4639282226563	1132.388061523438	-151.9268646240235	317.6019592285156	936.5358276367188	255.7436828613281	281.3753051757812	898.0303344726562	309.9498291015625	317.7471618652344	931.1709594726562	-102.1998672485352	277.4005126953125	888.0488891601562	-153.8557281494141	372.9170227050781	915.4290771484375	-192.2679748535156	371.8048095703124	925.1397094726562	342.279296875	
3	0.01666666666666667	243.5125122070312	1357.342041015625	180.3280334472656	257.0584716796875	1339.280151367188	49.54687118530268	198.671646118164	1502.643310546875	173.0734710693359	210.5824890136719	1498.634765625	29.20525932312005	44.61701202392577	1498.08349609375	77.39483642578116	21.70032882690429	1365.09912109375	86.50837707519523	57.78942489624021	1427.263916015625	232.4444885253905	71.07083129882814	1449.15869140625	-61.90717697143563	-142.7636413574219	1293.767333984375	72.06257629394521	-204.0398254394531	1518.356201171875	63.81406021118152	-452.0967407226562	1300.262573242188	120.270896911621	-452.1369934082031	1295.31884765625	7.193889617919788	-292.88818359375	1217.40576171875	168.2872772216796	-296.0972595214844	1213.991088867188	-45.20933151245128	3.489938974380477	912.0219116210938	132.1485443115234	-213.0445404052734	693.304931640625	-44.54030609130866	-19.84740257263186	968.0700073242188	235.6072387695312	-194.152587890625	742.1201782226562	-152.4359588623048	-327.2412109375	328.154541015625	-54.50160598754889	-161.4198150634766	565.6600952148438	125.2360382080078	-348.0364074707031	319.228515625	-142.2783203125001	-189.4625549316407	561.809814453125	211.7857055664062	-177.9983673095703	191.681640625	-109.01220703125	1.737740159034705	461.8751525878906	200.2322387695312	-407.126220703125	326.8262329101562	-103.8780059814454	-248.337142944336	549.623291015625	167.0033569335937	67.1557693481445	1090.737915039062	259.9678344726562	86.80852508544923	1112.570190429688	-130.0363464355469	112.6228866577148	1116.26904296875	304.9217529296874	147.2437591552735	1132.36865234375	-151.9691772460938	317.5442810058593	936.5808715820312	255.673843383789	281.3373413085937	898.064697265625	309.9003601074219	317.65185546875	931.2255859375	-102.3034210205078	277.3065795898438	888.0341186523438	-153.9716949462891	372.8572082519531	915.4603271484375	-192.3839263916016	371.7751159667968	925.1842041015625	342.2068176269531	
4	0.025	242.9225158691406	1357.195922851562	180.1454162597656	256.5891723632812	1339.16845703125	49.29522705078119	197.9798278808593	1502.531982421875	172.8631744384765	210.1249237060547	1498.535278320312	29.00407600402825	44.23175811767577	1498.026489257812	77.24094390869132	21.2746238708496	1365.0361328125	86.3463592529296	57.45626449584958	1427.223999023438	232.2522430419921	70.7405471801758	1449.058959960938	-62.03158569335945	-143.1524047851562	1293.663818359375	71.91152954101553	-204.5045776367188	1518.383056640625	64.02453613281237	-452.3909912109375	1299.934692382812	120.6800384521483	-452.6380615234375	1295.302368164062	7.636420726775989	-293.1110229492188	1217.020629882812	168.3172607421874	-296.5090637207031	1214.254516601562	-45.16634750366222	2.682977199554427	908.11669921875	131.9933624267578	-209.3988952636719	696.3592529296875	-45.4309387207032	-20.93839454650882	964.1239624023438	235.3134765624999	-190.662841796875	744.8118896484375	-153.3311309814454	-332.2373352050781	334.3058471679688	-54.34263992309577	-155.8560028076172	558.6796264648438	125.2372207641601	-353.3379516601562	325.6659851074219	-142.0613098144532	-184.0860900878907	554.50341796875	211.8919372558593	-185.1177520751953	195.6319427490234	-109.3855895996094	9.067955017089819	458.1029663085938	200.5457763671875	-412.2633056640625	334.2330322265625	-103.5034332275391	-242.5780792236328	541.253173828125	167.0197601318359	67.05772399902341	1090.720458984375	259.9387817382812	86.59424591064455	1112.490600585938	-130.1221771240235	112.5235824584961	1116.306396484375	304.8690795898437	147.0328979492188	1132.3701171875	-152.0184020996094	317.6200256347656	936.5919799804688	255.5952453613281	281.2894592285156	898.1157836914062	309.8560180664062	317.5554809570312	931.284912109375	-102.4256591796875	277.2333679199219	888.0807495117188	-154.0497283935547	372.7697448730469	915.486083984375	-192.4609680175781	371.7347106933593	925.2564086914062	342.1265258789062	
5	0.03333333333333333	242.5243225097656	1357.080322265625	179.8876037597656	256.1273803710938	1339.057006835938	49.17698669433588	197.7489013671875	1502.333740234375	172.5090179443359	209.7199249267578	1498.40478515625	28.8770561218261	43.80117416381835	1497.879150390625	77.10167694091788	20.91069221496581	1364.950927734375	86.22966766357413	57.13775253295896	1427.171752929688	232.017349243164	70.34659576416017	1448.923461914062	-62.19754791259773	-143.5388946533203	1293.614624023438	71.70001983642568	-204.9689636230469	1518.403930664062	64.25054168701159	-452.5746154785156	1299.559814453125	121.0827331542967	-453.1296691894531	1295.248657226562	8.09867668151842	-293.3173217773438	1216.593505859375	168.4194488525389	-297.134765625	1214.40673828125	-44.79724884033214	1.346240520477279	903.7070922851562	131.3418426513671	-205.3638916015625	699.4872436523438	-46.56090164184577	-22.23833084106448	959.7373046875	235.1416625976562	-186.7101898193359	747.6422119140625	-154.2595672607423	-336.4031066894531	340.8168640136719	-54.28112030029303	-148.5604553222657	551.5113525390625	124.7002563476562	-358.2400207519531	332.4300537109375	-141.8303222656251	-178.69287109375	546.7844848632812	211.7606048583984	-192.2353210449219	199.5961608886719	-109.6031341552735	16.03099060058591	453.9870910644531	200.9088592529297	-416.9567565917969	342.0019836425781	-103.1138763427735	-237.0277099609375	532.5540161132812	166.9983367919921	66.95249938964841	1090.71875	259.8786010742187	86.33911895751955	1112.431030273438	-130.0822448730469	112.422607421875	1116.348022460938	304.7922973632812	146.8301849365235	1132.409545898438	-152.2777404785157	317.6734313964843	936.717041015625	255.4035186767578	281.2164611816406	898.1720581054688	309.8069458007812	317.417724609375	931.3832397460938	-102.4944458007813	277.1606140136719	888.02392578125	-154.223876953125	372.7509460449219	915.5424194335938	-192.6291198730469	371.6455078124999	925.343994140625	342.0818481445312	
